<?xml version="1.0" encoding="UTF-8"?>
<svg width="165px" height="41px" viewBox="0 0 165 41" version="1.1" xmlns="http://www.w3.org/2000/svg" xmlns:xlink="http://www.w3.org/1999/xlink">
    <!-- Generator: Sketch 59.1 (86144) - https://sketch.com -->
    <title>logo/easyflex/groen</title>
    <desc>Created with Sketch.</desc>
    <g id="logo/easyflex/groen" stroke="none" stroke-width="1" fill="none" fill-rule="evenodd">
        <path d="M69.8061827,10.0532994 L71.1124024,19.2860521 C71.4169725,21.4965307 71.6336033,23.0128977 71.8094818,24.3562707 L71.8952762,24.3562707 C72.3757249,23.0556123 72.8540286,21.6695247 73.767739,19.3714813 L77.641356,10.0532994 L84.2561041,10.0532994 L76.6397064,25.2660909 C73.8106362,30.9001417 71.286136,34.7594024 68.4570658,37.4055696 C65.9754628,39.7463276 63.0155561,40.7842915 61.6213971,41 L60.229383,35.6713583 C61.2310326,35.3659492 62.6230467,34.8469673 63.8413272,33.9798616 C65.2805282,32.9846123 66.4988086,31.7245327 67.3245797,30.2978664 C67.4983134,29.9924572 67.4983134,29.7318984 67.412519,29.3004813 L63.2343318,10.0532994 L69.8061827,10.0532994 Z M55.7052299,9.57617778 C58.184688,9.57617778 60.14509,10.0972954 61.1445948,10.6589919 L59.6646414,15.0820849 C58.7959731,14.6933824 57.2709777,14.1722647 55.4028047,14.1722647 C53.7469728,14.1722647 52.657384,14.8642406 52.657384,16.0367554 C52.657384,16.9017253 53.5281971,17.6406872 55.2247813,18.4180922 C57.5755478,19.5884712 60.0142536,21.3248182 60.0142536,24.2699873 C60.0142536,29.1266331 55.8768187,31.7685287 50.2208231,31.7258142 C47.5654865,31.6809639 44.9959443,30.988988 43.7347666,30.0791678 L45.2576172,25.7009251 C46.4780425,26.3053362 48.7816221,27.1745775 50.8278184,27.1745775 C52.5715896,27.1745775 53.4852999,26.3053362 53.4852999,25.2673723 C53.4852999,24.2272727 52.7860756,23.4925823 50.8278184,22.5379118 C48.3912576,21.3248182 46.3450612,19.5457567 46.3450612,16.9017253 C46.3450612,12.4829038 50.2208231,9.57617778 55.7052299,9.57617778 Z M12.4080148,9.57681849 C16.7170384,9.57681849 19.8077816,12.0051414 19.8077816,15.9476955 C19.8077816,21.3233232 14.5421504,23.273243 6.00989755,23.0575344 C6.00989755,23.6640812 6.22652841,24.6187517 6.66193498,25.2252985 C7.48985091,26.3081126 8.92476221,26.8698091 10.7543277,26.8698091 C13.062197,26.8698091 15.0204542,26.3508272 16.7170384,25.5285719 L17.1524449,30.0349582 C14.670842,31.2907664 11.5800988,31.7243192 9.23147718,31.7243192 C3.13578523,31.7243192 4.8316906e-13,28.300747 4.8316906e-13,22.7521253 C4.8316906e-13,16.2958192 4.70367785,9.57681849 12.4080148,9.57681849 Z M36.340362,9.57660492 C38.9077593,9.57660492 41.6059931,10.055008 43.3497643,10.6167045 L41.2156286,21.7139479 C40.6922828,24.4455441 39.862222,28.7575792 39.3839182,31.249974 L33.7300674,31.249974 L34.4571749,27.0447253 L34.3713805,27.0447253 C32.3702262,30.5558623 30.0280392,31.7241056 27.5464362,31.7241056 C23.7157164,31.7241056 21.1054218,28.7789365 21.1054218,24.3579793 C21.1054218,17.2054258 25.8927492,9.57660492 36.340362,9.57660492 Z M123.107025,9.57681849 C127.418193,9.57681849 130.508936,12.0051414 130.508936,15.9476955 C130.508936,21.3233232 125.24116,23.273243 116.708907,23.0575344 C116.708907,23.6640812 116.925538,24.6187517 117.360945,25.2252985 C118.188861,26.3081126 119.625917,26.8698091 121.453338,26.8698091 C123.761207,26.8698091 125.721609,26.3508272 127.418193,25.5285719 L127.851455,30.0349582 C125.371997,31.2907664 122.281254,31.7243192 119.930487,31.7243192 C113.834795,31.7243192 110.701155,28.300747 110.701155,22.7521253 C110.701155,16.2958192 115.402688,9.57681849 123.107025,9.57681849 Z M98.49969,1.52766688e-13 C99.9817882,1.52766688e-13 101.112129,0.213572813 101.809209,0.516846207 L100.71962,5.46105682 C100.155522,5.24321255 99.5013396,5.11293314 98.7184657,5.11293314 C96.6722693,5.11293314 95.4110917,6.89199467 95.0185823,9.0127727 L94.8448486,10.055008 L99.0230358,10.055008 L98.1114703,14.8219532 L93.9740355,14.8219532 L90.8382503,31.249974 L84.5709695,31.249974 L87.7046099,14.8219532 L84.9634789,14.8219532 L85.8321472,10.055008 L88.6204651,10.055008 L88.7941987,8.97005813 C89.2703576,6.41359157 90.2741521,3.76956014 92.4061429,1.99263434 C94.1477692,0.561696497 96.4127412,1.52766688e-13 98.49969,1.52766688e-13 Z M111.07672,0.474131644 L105.159051,31.249974 L98.8896255,31.249974 L104.809439,0.474131644 L111.07672,0.474131644 Z M140.14472,10.0532994 C140.14472,10.0532994 141.189266,12.1569916 141.884201,13.5580293 C142.830084,15.4566916 142.864402,15.8005438 142.864402,15.8005438 L142.872209,15.7840834 C142.930729,15.6635458 143.331981,14.8828926 144.535248,13.5046361 C145.440379,12.4666722 147.546631,10.0532994 147.546631,10.0532994 L154.727622,10.0532994 L145.444668,20.7148542 L150.680272,31.2482654 L143.964715,31.2482654 C143.964715,31.2482654 142.486907,28.2326173 141.982865,27.2395037 C141.251467,25.79148 141.180687,25.3792845 141.180687,25.3792845 C141.180687,25.3792845 140.693804,26.1716396 139.690009,27.3206613 C138.941453,28.1834955 136.271102,31.2482654 136.271102,31.2482654 L129.045069,31.2482654 L138.551089,20.3603234 L133.427018,10.0532994 L140.14472,10.0532994 Z M34.6416329,14.3029713 C30.5942822,14.3029713 27.6343755,19.2429104 27.6343755,23.1876003 C27.6343755,25.2677995 28.4622914,26.6987373 30.2039177,26.6987373 C32.0742356,26.6987373 34.4700441,24.5758236 35.4266516,19.3731898 L36.2953199,14.4759652 C35.8170161,14.3884004 35.2958152,14.3029713 34.6416329,14.3029713 Z M11.622996,14.1280551 C8.70813136,14.1280551 7.05444434,16.5542423 6.61903778,18.5041621 C11.4943044,18.5468766 13.9330102,17.899751 13.9330102,15.9476955 L13.9330102,15.9049809 C13.9330102,14.8648813 13.062197,14.1280551 11.622996,14.1280551 Z M122.324151,14.1280551 C119.409286,14.1280551 117.753454,16.5542423 117.318048,18.5041621 C122.193314,18.5468766 124.63202,17.899751 124.63202,15.9476955 L124.63202,15.9049809 C124.63202,14.8648813 123.761207,14.1280551 122.324151,14.1280551 Z M160.937635,9.68296418 C163.181159,9.68296418 165,11.5325047 165,13.7814265 C165,16.0880128 163.181159,17.9183318 160.918332,17.9183318 C158.64049,17.9183318 156.802345,16.0880128 156.802345,13.7814265 C156.802345,11.5325047 158.64049,9.68296418 160.918332,9.68296418 L160.937635,9.68296418 Z M160.918332,10.5073552 L160.901173,10.5073552 C159.17456,10.5073552 157.776112,11.970329 157.776112,13.800648 C157.776112,15.6480528 159.17456,17.0960765 160.937635,17.0960765 C162.664248,17.1131623 164.062696,15.6480528 164.062696,13.800648 C164.062696,11.970329 162.664248,10.5073552 160.918332,10.5073552 Z M160.699556,11.4940616 C161.488864,11.4940616 161.988617,11.6222053 162.280318,11.8592711 C162.535556,12.0429438 162.683551,12.3739816 162.683551,12.8310274 C162.683551,13.360688 162.31678,13.7664764 161.799869,13.8924843 L161.799869,13.9287917 C162.205247,14.0184923 162.462631,14.3858375 162.535556,15.0457775 C162.62993,15.7591107 162.722159,16.0346196 162.77578,16.1777134 L161.78271,16.1777134 C161.673322,16.0132624 161.598252,15.6117455 161.506023,15.0094701 C161.433098,14.5139812 161.139252,14.3132228 160.626631,14.3132228 L160.204093,14.3132228 L160.204093,16.1777134 L159.226037,16.1777134 L159.226037,11.6222053 C159.579939,11.5688121 159.981028,11.4940616 160.699556,11.4940616 Z M160.736018,12.2266164 C160.497939,12.2266164 160.33064,12.2266164 160.204093,12.2437022 L160.204093,13.5443606 L160.641645,13.5443606 C161.231481,13.5443606 161.673322,13.360688 161.673322,12.8865564 C161.673322,12.5192111 161.396635,12.2266164 160.736018,12.2266164 Z" id="Combined-Shape" fill="#8A9977"></path>
    </g>
</svg>